<svg xmlns="http://www.w3.org/2000/svg" xmlns:xlink="http://www.w3.org/1999/xlink" width="52.98" height="110.44" viewBox="0 0 52.98 110.44">
  <defs>
    <linearGradient id="New_Gradient_Swatch_1" data-name="New Gradient Swatch 1" x1="0.5" y1="55.22" x2="52.48" y2="55.22" gradientUnits="userSpaceOnUse">
      <stop offset="0" stop-color="#eceeef"/>
      <stop offset="0.48" stop-color="#bfbebe"/>
      <stop offset="0.56" stop-color="#919191"/>
      <stop offset="1" stop-color="#6d6d6d"/>
    </linearGradient>
  </defs>
  <g id="Layer_2" data-name="Layer 2">
    <g id="New_Legend" data-name="New Legend">
      <path d="M2.75,33.53s-2.16-10.81,0-14S4.91,7.59,6.53,7.05a6.17,6.17,0,0,1,5.41,0c2.7,1.08,5.4-2.71,8.65-3.25S29.24,0,31.4.56s8.65,0,11.35,2.16,6.49,5.41,7.57,8.65A59.22,59.22,0,0,1,52.48,26c0,4.33-1.62,30.28-1.62,31.9s-2.17,13-2.17,13a6.71,6.71,0,0,1-1.62,5.41c-2.16,2.16-3.78,3.24-6.48,3.78S39,78.4,35.18,82.72s-4.86,6-5.4,8.65-1.63,7.57-2.17,9.19.54,2.7-3.78,4.86a23,23,0,0,1-8.11,2.71c-2.7.54-4.86,3.78-6.48,0S6.53,98.94,5.45,96.78,1.67,100,2.75,91.37.59,66,.59,66,.05,64.34,1.67,60s8.11-8.65,5.94-12.43S2.75,33.53,2.75,33.53Z" stroke="#231f20" fill="url(#New_Gradient_Swatch_1)"/>
    </g>
  </g>
</svg>
