<svg xmlns="http://www.w3.org/2000/svg" xmlns:xlink="http://www.w3.org/1999/xlink" width="20.19" height="15.01" viewBox="0 0 20.19 15.01">
  <defs>
    <linearGradient id="New_Gradient_Swatch_1" data-name="New Gradient Swatch 1" x1="-456.04" y1="-377.93" x2="-451.33" y2="-377.93" gradientTransform="translate(404.69 -427.41) rotate(-86.96)" gradientUnits="userSpaceOnUse">
      <stop offset="0" stop-color="#eceeef"/>
      <stop offset="0.48" stop-color="#bfbebe"/>
      <stop offset="0.56" stop-color="#919191"/>
      <stop offset="1" stop-color="#6d6d6d"/>
    </linearGradient>
    <linearGradient id="New_Gradient_Swatch_1-2" data-name="New Gradient Swatch 1-2" x1="-454.76" y1="-373.26" x2="-448.09" y2="-373.26" gradientTransform="translate(404.69 -427.41) rotate(-86.96)" gradientUnits="userSpaceOnUse">
      <stop offset="0" stop-color="#eceeef"/>
      <stop offset="0.48" stop-color="#bfbebe"/>
      <stop offset="0.56" stop-color="#919191"/>
      <stop offset="1" stop-color="#6d6d6d"/>
    </linearGradient>
    <linearGradient id="New_Gradient_Swatch_1-3" data-name="New Gradient Swatch 1-3" x1="-458.77" y1="-379.12" x2="-455.51" y2="-379.12" gradientTransform="translate(404.69 -427.41) rotate(-86.96)" gradientUnits="userSpaceOnUse">
      <stop offset="0" stop-color="#eceeef"/>
      <stop offset="0.48" stop-color="#bfbebe"/>
      <stop offset="0.56" stop-color="#919191"/>
      <stop offset="1" stop-color="#6d6d6d"/>
    </linearGradient>
    <linearGradient id="New_Gradient_Swatch_1-4" data-name="New Gradient Swatch 1-4" x1="-460.72" y1="-374.97" x2="-455.23" y2="-374.97" gradientTransform="translate(404.69 -427.41) rotate(-86.96)" gradientUnits="userSpaceOnUse">
      <stop offset="0" stop-color="#eceeef"/>
      <stop offset="0.48" stop-color="#bfbebe"/>
      <stop offset="0.56" stop-color="#919191"/>
      <stop offset="1" stop-color="#6d6d6d"/>
    </linearGradient>
    <linearGradient id="New_Gradient_Swatch_1-5" data-name="New Gradient Swatch 1-5" x1="-459.1" y1="-364.04" x2="-454.39" y2="-364.04" gradientTransform="translate(404.69 -427.41) rotate(-86.96)" gradientUnits="userSpaceOnUse">
      <stop offset="0" stop-color="#eceeef"/>
      <stop offset="0.48" stop-color="#bfbebe"/>
      <stop offset="0.56" stop-color="#919191"/>
      <stop offset="1" stop-color="#6d6d6d"/>
    </linearGradient>
    <linearGradient id="New_Gradient_Swatch_1-6" data-name="New Gradient Swatch 1-6" x1="-462.33" y1="-368.72" x2="-455.67" y2="-368.72" gradientTransform="translate(404.69 -427.41) rotate(-86.96)" gradientUnits="userSpaceOnUse">
      <stop offset="0" stop-color="#eceeef"/>
      <stop offset="0.48" stop-color="#bfbebe"/>
      <stop offset="0.56" stop-color="#919191"/>
      <stop offset="1" stop-color="#6d6d6d"/>
    </linearGradient>
    <linearGradient id="New_Gradient_Swatch_1-7" data-name="New Gradient Swatch 1-7" x1="-454.91" y1="-362.86" x2="-451.66" y2="-362.86" gradientTransform="translate(404.69 -427.41) rotate(-86.96)" gradientUnits="userSpaceOnUse">
      <stop offset="0" stop-color="#eceeef"/>
      <stop offset="0.48" stop-color="#bfbebe"/>
      <stop offset="0.56" stop-color="#919191"/>
      <stop offset="1" stop-color="#6d6d6d"/>
    </linearGradient>
    <linearGradient id="New_Gradient_Swatch_1-8" data-name="New Gradient Swatch 1-8" x1="-455.19" y1="-367.01" x2="-449.7" y2="-367.01" gradientTransform="translate(404.69 -427.41) rotate(-86.96)" gradientUnits="userSpaceOnUse">
      <stop offset="0" stop-color="#eceeef"/>
      <stop offset="0.48" stop-color="#bfbebe"/>
      <stop offset="0.56" stop-color="#919191"/>
      <stop offset="1" stop-color="#6d6d6d"/>
    </linearGradient>
  </defs>
  <g id="Layer_2" data-name="Layer 2">
    <g id="New_Legend" data-name="New Legend">
      <g>
        <path d="M4.67,4.37C5.65,5.5,5.81,7,5,7.66S2.79,8,1.81,6.85.67,4.25,1.46,3.56,3.69,3.24,4.67,4.37Z" stroke="#231f20" stroke-width="0.5" fill="url(#New_Gradient_Swatch_1)"/>
        <path d="M10.38,1.56a3.33,3.33,0,0,1,0,4.7,3.34,3.34,0,0,1-4.67-.61,3.35,3.35,0,0,1,0-4.71A3.34,3.34,0,0,1,10.38,1.56Z" stroke="#231f20" stroke-width="0.5" fill="url(#New_Gradient_Swatch_1-2)"/>
        <path d="M3.1,7.93A1.62,1.62,0,1,1,.81,7.77,1.63,1.63,0,0,1,3.1,7.93Z" stroke="#231f20" stroke-width="0.5" fill="url(#New_Gradient_Swatch_1-3)"/>
        <path d="M8.42,7.93c.79.9.33,2.59-1,3.76s-3.09,1.4-3.88.5-.32-2.59,1-3.77S7.64,7,8.42,7.93Z" stroke="#231f20" stroke-width="0.5" fill="url(#New_Gradient_Swatch_1-4)"/>
        <path d="M15.52,10.65c-1-1.14-1.14-2.61-.35-3.29s2.23-.33,3.21.8,1.13,2.6.34,3.29S16.5,11.78,15.52,10.65Z" stroke="#231f20" stroke-width="0.5" fill="url(#New_Gradient_Swatch_1-5)"/>
        <path d="M9.8,13.45a3.34,3.34,0,0,1,0-4.7,3.33,3.33,0,0,1,4.66.62,3.33,3.33,0,0,1,0,4.7A3.35,3.35,0,0,1,9.8,13.45Z" stroke="#231f20" stroke-width="0.5" fill="url(#New_Gradient_Swatch_1-6)"/>
        <path d="M17.08,7.08a1.63,1.63,0,1,1,2.29.16A1.62,1.62,0,0,1,17.08,7.08Z" stroke="#231f20" stroke-width="0.5" fill="url(#New_Gradient_Swatch_1-7)"/>
        <path d="M11.76,7.09c-.78-.91-.32-2.59,1-3.77s3.09-1.4,3.87-.5.32,2.6-1,3.77S12.55,8,11.76,7.09Z" stroke="#231f20" stroke-width="0.5" fill="url(#New_Gradient_Swatch_1-8)"/>
      </g>
    </g>
  </g>
</svg>
