<svg xmlns="http://www.w3.org/2000/svg" width="157.93" height="16.54" viewBox="0 0 157.93 16.54">
  <g id="Layer_2" data-name="Layer 2">
    <g id="New_Legend" data-name="New Legend">
      <g>
        <g>
          <path d="M0,0V16.54H16.54V0ZM16,5.44a6.47,6.47,0,0,1-2.35,1.2A5.58,5.58,0,0,1,9.37,6l.62.49a9.67,9.67,0,0,1,1.24,1.24,7.19,7.19,0,0,0,1,.07,6.67,6.67,0,0,0,1.62-.19A7.25,7.25,0,0,0,16,6.66v3.41a9.78,9.78,0,0,1-2.5.74l-.49.07c0,.16.09.32.13.49,0-.16-.08-.33-.13-.49a8.78,8.78,0,0,0-1.76-3.17A10.36,10.36,0,0,0,10,6.47L9.37,6l0,0,0,0A3.19,3.19,0,0,1,8,3.52,2.56,2.56,0,0,1,10,.75a2.13,2.13,0,0,1,2.52.76,1.19,1.19,0,0,1-.08,1.27c-.26.26-.68.15-1,0a.49.49,0,0,0-.41.9,1.73,1.73,0,0,0,2.1-.21,2.15,2.15,0,0,0,.26-2.4A2.27,2.27,0,0,0,13,.56h3ZM3.14.56A10.23,10.23,0,0,0,3,4.12c.3,0,.63,0,1,0A8.65,8.65,0,0,1,4.14.56H8.23A3.42,3.42,0,0,0,7,3.6a4.78,4.78,0,0,0,.25,1.16,8.51,8.51,0,0,0-3.31-.69,9.76,9.76,0,0,0,.21,1A8.08,8.08,0,0,1,8.71,6.72l0,0,0,0,0,0,0,0h0q.29.21.57.45A8.44,8.44,0,0,1,12,11h0a9.33,9.33,0,0,1,.26,1,9.31,9.31,0,0,0,1-.08h0a9.31,9.31,0,0,1-1,.08A8.91,8.91,0,0,1,12.09,16H7.51A3.27,3.27,0,0,0,8.9,13.65a4.9,4.9,0,0,0-.15-2.05h0l-.06-.18a9.17,9.17,0,0,0,3.09.51h.48A9.33,9.33,0,0,0,12,11,7.65,7.65,0,0,1,7.46,9.69l-.23-.17c-.15-.11-.29-.23-.43-.35A8.77,8.77,0,0,1,4.15,5.06a9.76,9.76,0,0,1-.21-1,9.61,9.61,0,0,0-1,0c0,.19.06.38.1.58C3,4.5,3,4.31,3,4.12a8.79,8.79,0,0,0-2.42.64V.56Zm0,4.53h0A9.22,9.22,0,0,0,5,8.69a6,6,0,0,0-1.84,0A5.7,5.7,0,0,0,.56,9.94V5.84a7.41,7.41,0,0,1,2.6-.75ZM.56,11.28A5,5,0,0,1,3.3,9.69a4.7,4.7,0,0,1,3.14.51l.42.29a1.37,1.37,0,0,1,.18.16,3.21,3.21,0,0,1,.88,2.88,2.27,2.27,0,0,1-1.84,2,2,2,0,0,1-2.16-.86,1.05,1.05,0,0,1,.14-1,.85.85,0,0,1,.9-.37.5.5,0,0,0,.15-1,1.82,1.82,0,0,0-1.86.79,2,2,0,0,0-.18,2,2.59,2.59,0,0,0,.72.82H.56ZM13.09,16a10.07,10.07,0,0,0,.13-4.14,13.28,13.28,0,0,0,1.92-.4c.14,0,.46-.15.84-.3V16Z" fill="#77787b"/>
          <path d="M9.37,6l-.08-.06,0,0Z" fill="#77787b"/>
        </g>
        <g>
          <path d="M26.36,2.45q.6.06,1.2.18a.49.49,0,0,1,.43.54v.9c0,.3-.16.45-.41.45l-.14,0c-.37-.07-.74-.12-1.1-.17a7.15,7.15,0,0,0-1-.07,1.68,1.68,0,0,0-1.16.31,1.19,1.19,0,0,0-.33.9v.37a1,1,0,0,0,.21.7A2.22,2.22,0,0,0,25,7l1.53.5a5.21,5.21,0,0,1,1,.47,2.43,2.43,0,0,1,.69.62,2.34,2.34,0,0,1,.39.86,4.89,4.89,0,0,1,.12,1.15v.33a3.12,3.12,0,0,1-.89,2.39,4.31,4.31,0,0,1-3,.83,8,8,0,0,1-1.12-.09,11.17,11.17,0,0,1-1.26-.24.51.51,0,0,1-.46-.54l0-.93c0-.3.13-.45.38-.45a.37.37,0,0,1,.16,0,11.93,11.93,0,0,0,1.19.24,7,7,0,0,0,1,.09,2.27,2.27,0,0,0,1.42-.33,1.1,1.1,0,0,0,.4-.92v-.45a1.15,1.15,0,0,0-.2-.71,1.48,1.48,0,0,0-.7-.44l-1.68-.55A4.89,4.89,0,0,1,23,8.38,2.23,2.23,0,0,1,21.9,6.93a5.57,5.57,0,0,1-.11-1.16V5.59a3.23,3.23,0,0,1,.83-2.38,3.76,3.76,0,0,1,2.71-.82,10.19,10.19,0,0,1,1,.06" fill="#77787b"/>
          <path d="M32.2,6.06v4.4A1.62,1.62,0,0,0,34,12.28a1.62,1.62,0,0,0,1.84-1.82V6.08a1.83,1.83,0,0,0-.46-1.35A1.84,1.84,0,0,0,34,4.26a1.61,1.61,0,0,0-1.84,1.8M37,3.39A4,4,0,0,1,38,6.22v4.1A4,4,0,0,1,37,13.14a3.92,3.92,0,0,1-3,1,5.4,5.4,0,0,1-1.76-.26,3,3,0,0,1-1.21-.75,3,3,0,0,1-.7-1.21,5.3,5.3,0,0,1-.23-1.61V6.22a4,4,0,0,1,.93-2.83,3.87,3.87,0,0,1,3-1,3.91,3.91,0,0,1,3,1" fill="#77787b"/>
          <path d="M47.64,3.08v7.21a4,4,0,0,1-.94,2.85,3.79,3.79,0,0,1-2.91,1,3.77,3.77,0,0,1-2.87-1A4,4,0,0,1,40,10.31V3.08a.43.43,0,0,1,.49-.48h1.09a.42.42,0,0,1,.48.48v7.38a1.86,1.86,0,0,0,.46,1.36,1.74,1.74,0,0,0,1.29.46,1.76,1.76,0,0,0,1.31-.46,1.82,1.82,0,0,0,.46-1.36V3.08A.42.42,0,0,1,46,2.6h1.1c.33,0,.5.16.5.48" fill="#77787b"/>
          <path d="M52.39,4.22l-.59,0V7.55l.63,0,.49,0a2.21,2.21,0,0,0,1.55-.43A1.58,1.58,0,0,0,54.93,6V5.7a1.35,1.35,0,0,0-.46-1.12,2.46,2.46,0,0,0-1.55-.37h-.53m3.65-1a2.93,2.93,0,0,1,1,2.32V6a3,3,0,0,1-.49,1.68,3,3,0,0,1-1.43,1.16l2.47,4.52a.68.68,0,0,1,.09.28c0,.21-.14.31-.42.31H56a.61.61,0,0,1-.58-.34L53.15,9.37l-.19,0h-.7l-.46,0v4.11a.43.43,0,0,1-.49.48H50.22a.43.43,0,0,1-.49-.48V3.05a.54.54,0,0,1,.58-.59l1.39,0,1.2,0A4.64,4.64,0,0,1,56,3.26" fill="#77787b"/>
          <path d="M63.68,2.45a10.55,10.55,0,0,1,1.14.2.51.51,0,0,1,.44.54v.86c0,.31-.14.47-.4.47l-.14,0-.91-.16a6.22,6.22,0,0,0-1-.08,4.19,4.19,0,0,0-1,.09,1.41,1.41,0,0,0-.62.32,1.18,1.18,0,0,0-.33.58,3.67,3.67,0,0,0-.09.88v4.26a1.91,1.91,0,0,0,.44,1.45,2.29,2.29,0,0,0,1.55.41,6,6,0,0,0,.95-.08l.92-.17h.14c.24,0,.37.15.4.45v.91a.51.51,0,0,1-.45.54q-.55.11-1.11.18a8.11,8.11,0,0,1-1.09.08,5.88,5.88,0,0,1-1.8-.23,2.74,2.74,0,0,1-1.18-.68A2.69,2.69,0,0,1,59,12.11a5.75,5.75,0,0,1-.19-1.58V6A5.77,5.77,0,0,1,59,4.42a2.71,2.71,0,0,1,.66-1.13,3,3,0,0,1,1.19-.68,6.09,6.09,0,0,1,1.78-.22,9.55,9.55,0,0,1,1.06.06" fill="#77787b"/>
          <path d="M73.41,3.08V4a.44.44,0,0,1-.5.5H69.15V7.24h3.42c.33,0,.5.16.5.48v.91a.44.44,0,0,1-.5.5H69.15V12h3.76a.44.44,0,0,1,.5.5v.92c0,.32-.16.48-.5.48H67.58a.43.43,0,0,1-.49-.48V3.08a.43.43,0,0,1,.49-.48h5.33c.34,0,.5.16.5.48" fill="#77787b"/>
          <path d="M79.53,2.45q.59.06,1.2.18a.49.49,0,0,1,.43.54v.9q0,.45-.42.45l-.14,0c-.37-.07-.73-.12-1.1-.17a7.13,7.13,0,0,0-1-.07,1.65,1.65,0,0,0-1.16.31,1.19,1.19,0,0,0-.33.9v.37a1.08,1.08,0,0,0,.2.7,2.28,2.28,0,0,0,.89.46l1.52.5a4.72,4.72,0,0,1,1,.47,2.35,2.35,0,0,1,.7.62,2.72,2.72,0,0,1,.39.86,4.89,4.89,0,0,1,.12,1.15v.33a3.08,3.08,0,0,1-.9,2.39,4.26,4.26,0,0,1-2.95.83,7.87,7.87,0,0,1-1.12-.09,11.79,11.79,0,0,1-1.27-.24.51.51,0,0,1-.45-.54l0-.93c0-.3.12-.45.38-.45a.3.3,0,0,1,.15,0c.4.1.79.18,1.19.24a7.19,7.19,0,0,0,1,.09,2.29,2.29,0,0,0,1.42-.33,1.12,1.12,0,0,0,.4-.92v-.45a1.15,1.15,0,0,0-.2-.71,1.53,1.53,0,0,0-.7-.44l-1.68-.55a5,5,0,0,1-1.08-.47,2.46,2.46,0,0,1-.7-.61,2.31,2.31,0,0,1-.38-.84A5.57,5.57,0,0,1,75,5.77V5.59a3.19,3.19,0,0,1,.83-2.38,3.71,3.71,0,0,1,2.7-.82,10.37,10.37,0,0,1,1,.06" fill="#77787b"/>
          <path d="M87.66,5.78c-.07-.18-.14-.4-.21-.64-.08.19-.13.41-.22.64L86.7,7.05h1.49Zm1,2.41-.32-.79H86.57l-.32.79h-.48l1.42-3.48h.51l1.43,3.48Z" fill="#77787b"/>
          <path d="M91.67,5.07H90.36v1h1.37c.46,0,.69-.18.69-.52s-.25-.53-.75-.53m.72,3.12-.94-1.73H90.36V8.19H89.9V4.71h1.86a1.37,1.37,0,0,1,.85.23.81.81,0,0,1,.28.66c0,.51-.31.79-.94.84l1,1.75Z" fill="#77787b"/>
          <path d="M96.35,5.7a1.08,1.08,0,0,0-1.78-.32,1.52,1.52,0,0,0-.33,1,1.56,1.56,0,0,0,.34,1.1,1,1,0,0,0,.8.33,1,1,0,0,0,1-.71l.45.11a1.38,1.38,0,0,1-1.45,1,1.56,1.56,0,0,1-1.15-.42,1.84,1.84,0,0,1-.48-1.38,1.77,1.77,0,0,1,.49-1.33,1.59,1.59,0,0,1,1.15-.41,1.39,1.39,0,0,1,1.41.88Z" fill="#77787b"/>
          <polygon points="100.31 8.19 100.31 6.46 98.18 6.46 98.18 8.19 97.72 8.19 97.72 4.71 98.18 4.71 98.18 6.09 100.31 6.09 100.31 4.71 100.76 4.71 100.76 8.19 100.31 8.19" fill="#77787b"/>
          <path d="M103.43,5.78c-.08-.18-.14-.4-.22-.64-.07.19-.12.41-.22.64l-.52,1.27H104Zm1,2.41-.33-.79h-1.75l-.32.79h-.48L103,4.71h.51l1.42,3.48Z" fill="#77787b"/>
          <polygon points="105.67 8.19 105.67 4.71 108.42 4.71 108.3 5.07 106.12 5.07 106.12 6.12 107.95 6.12 107.95 6.47 106.12 6.47 106.12 7.83 108.29 7.83 108.44 8.19 105.67 8.19" fill="#77787b"/>
          <path d="M111.73,5.38a1.33,1.33,0,0,0-1.75,0,1.53,1.53,0,0,0-.35,1.07A1.52,1.52,0,0,0,110,7.53a1.17,1.17,0,0,0,.88.33,1.15,1.15,0,0,0,.88-.34,1.56,1.56,0,0,0,.34-1.07,1.5,1.5,0,0,0-.35-1.07m.35,2.4a1.93,1.93,0,0,1-2.44,0,1.79,1.79,0,0,1-.47-1.34,1.79,1.79,0,0,1,.47-1.34,1.65,1.65,0,0,1,1.22-.43,1.71,1.71,0,0,1,1.22.42,1.81,1.81,0,0,1,.47,1.34,1.84,1.84,0,0,1-.47,1.34" fill="#77787b"/>
          <polygon points="113.51 8.19 113.51 4.71 113.97 4.71 113.97 7.83 116.05 7.83 116.21 8.19 113.51 8.19" fill="#77787b"/>
          <path d="M119.42,5.38a1.33,1.33,0,0,0-1.75,0,1.53,1.53,0,0,0-.35,1.07,1.52,1.52,0,0,0,.35,1.08,1.18,1.18,0,0,0,.88.33,1.15,1.15,0,0,0,.88-.34,1.56,1.56,0,0,0,.34-1.07,1.5,1.5,0,0,0-.35-1.07m.35,2.4a1.93,1.93,0,0,1-2.44,0,1.79,1.79,0,0,1-.47-1.34,1.79,1.79,0,0,1,.47-1.34,1.65,1.65,0,0,1,1.22-.43,1.71,1.71,0,0,1,1.22.42,1.81,1.81,0,0,1,.47,1.34,1.84,1.84,0,0,1-.47,1.34" fill="#77787b"/>
          <path d="M123.55,8.08a2.2,2.2,0,0,1-.79.14,1.65,1.65,0,0,1-1.23-.44,1.88,1.88,0,0,1-.45-1.36,1.74,1.74,0,0,1,.49-1.33,1.61,1.61,0,0,1,1.15-.41,1.43,1.43,0,0,1,1.4.82l-.46.13a1.11,1.11,0,0,0-1.78-.25,1.49,1.49,0,0,0-.34,1,1.57,1.57,0,0,0,.33,1.08,1.09,1.09,0,0,0,.88.36,1.62,1.62,0,0,0,.56-.1,1.22,1.22,0,0,0,.46-.27v-1h-1.34l.07-.34h1.71V7.68a1.64,1.64,0,0,1-.66.4" fill="#77787b"/>
          <rect x="125.27" y="4.71" width="0.46" height="3.48" fill="#77787b"/>
          <path d="M129.28,5.7a1,1,0,0,0-.95-.66,1.06,1.06,0,0,0-.83.34,1.52,1.52,0,0,0-.33,1,1.56,1.56,0,0,0,.35,1.1,1.1,1.1,0,0,0,1.81-.38l.45.11a1.39,1.39,0,0,1-1.45,1,1.59,1.59,0,0,1-1.16-.42,1.87,1.87,0,0,1-.47-1.38,1.73,1.73,0,0,1,.49-1.33,1.57,1.57,0,0,1,1.15-.41,1.39,1.39,0,0,1,1.4.88Z" fill="#77787b"/>
          <path d="M132.22,5.78c-.07-.18-.14-.4-.22-.64-.07.19-.12.41-.22.64l-.52,1.27h1.49Zm1,2.41-.32-.79h-1.76l-.32.79h-.48l1.42-3.48h.51l1.42,3.48Z" fill="#77787b"/>
          <polygon points="134.46 8.19 134.46 4.71 134.92 4.71 134.92 7.83 137 7.83 137.16 8.19 134.46 8.19" fill="#77787b"/>
          <path d="M140.33,5.78c-.08-.18-.14-.4-.22-.64-.07.19-.13.41-.22.64l-.53,1.27h1.49Zm1,2.41L141,7.4h-1.76l-.32.79h-.48l1.43-3.48h.51l1.42,3.48Z" fill="#77787b"/>
          <path d="M145,8.19l-1.74-2.48a4.38,4.38,0,0,1-.24-.43V8.19h-.44V4.71h.55l1.77,2.5.2.39V4.71h.44V8.19Z" fill="#77787b"/>
          <path d="M149,5.44a1.08,1.08,0,0,0-.9-.37h-1V7.83h1c.81,0,1.21-.45,1.21-1.35a1.61,1.61,0,0,0-.3-1m.41,2.29a1.63,1.63,0,0,1-1.31.46h-1.47V4.71h1.51c1.09,0,1.63.59,1.63,1.78a1.82,1.82,0,0,1-.36,1.24" fill="#77787b"/>
          <polygon points="88.69 14.12 88.69 12.38 86.56 12.38 86.56 14.12 86.1 14.12 86.1 10.63 86.56 10.63 86.56 12.02 88.69 12.02 88.69 10.63 89.14 10.63 89.14 14.12 88.69 14.12" fill="#77787b"/>
          <polygon points="90.24 14.12 90.24 10.63 93 10.63 92.87 11 90.69 11 90.69 12.04 92.53 12.04 92.53 12.39 90.69 12.39 90.69 13.75 92.87 13.75 93.01 14.12 90.24 14.12" fill="#77787b"/>
          <path d="M95.63,11H94.32v1h1.37c.47,0,.7-.17.7-.52s-.25-.53-.76-.53m.73,3.13-.94-1.74h-1.1v1.74h-.45V10.63h1.86a1.31,1.31,0,0,1,.85.24.78.78,0,0,1,.28.65c0,.52-.32.8-.94.84l1,1.76Z" fill="#77787b"/>
          <rect x="97.86" y="10.64" width="0.46" height="3.48" fill="#77787b"/>
          <polygon points="100.78 11 100.78 14.12 100.32 14.12 100.32 11 99.15 11 99.15 10.63 101.95 10.63 101.95 11 100.78 11" fill="#77787b"/>
          <path d="M104.36,11.71c-.08-.19-.14-.41-.22-.65-.07.2-.13.42-.22.65L103.39,13h1.5Zm1,2.41-.32-.8h-1.76l-.32.8h-.48l1.43-3.49h.51l1.42,3.49Z" fill="#77787b"/>
          <path d="M109,14a2.45,2.45,0,0,1-.8.14,1.67,1.67,0,0,1-1.23-.44,1.93,1.93,0,0,1-.45-1.37A1.76,1.76,0,0,1,107,11a1.62,1.62,0,0,1,1.15-.41,1.46,1.46,0,0,1,1.4.82l-.46.14a1.1,1.1,0,0,0-1-.6,1.06,1.06,0,0,0-.83.34,1.5,1.5,0,0,0-.35,1.06,1.64,1.64,0,0,0,.33,1.08,1.14,1.14,0,0,0,.89.36,1.64,1.64,0,0,0,.56-.11,1.21,1.21,0,0,0,.46-.26v-1h-1.34l.07-.33h1.7V13.6A1.55,1.55,0,0,1,109,14" fill="#77787b"/>
          <polygon points="110.67 14.12 110.67 10.63 113.42 10.63 113.29 11 111.11 11 111.11 12.04 112.95 12.04 112.95 12.39 111.11 12.39 111.11 13.75 113.29 13.75 113.43 14.12 110.67 14.12" fill="#77787b"/>
          <path d="M117.52,11h-1.31v1h1.37c.47,0,.7-.17.7-.52S118,11,117.52,11m.73,3.13-.94-1.74h-1.1v1.74h-.45V10.63h1.85a1.34,1.34,0,0,1,.86.24.78.78,0,0,1,.28.65c0,.52-.32.8-1,.84l1,1.76Z" fill="#77787b"/>
          <polygon points="119.75 14.12 119.75 10.63 122.5 10.63 122.37 11 120.19 11 120.19 12.04 122.03 12.04 122.03 12.39 120.19 12.39 120.19 13.75 122.37 13.75 122.52 14.12 119.75 14.12" fill="#77787b"/>
          <path d="M124.77,14.14c-.9,0-1.43-.3-1.58-.91a.72.72,0,0,1,0-.13l.53-.11a.71.71,0,0,0,0,.15,1,1,0,0,0,1.08.65c.69,0,1-.24,1-.71a.54.54,0,0,0-.17-.44,1.13,1.13,0,0,0-.6-.21l-.71-.09a1.71,1.71,0,0,1-.79-.24.68.68,0,0,1-.27-.58.77.77,0,0,1,.35-.66,1.8,1.8,0,0,1,1-.26,1.42,1.42,0,0,1,1.41.67l0,.07-.46.13,0-.09a1.11,1.11,0,0,0-1-.42,1.18,1.18,0,0,0-.65.15.43.43,0,0,0-.23.38.38.38,0,0,0,.13.32,1.23,1.23,0,0,0,.62.18l.68.08a1.64,1.64,0,0,1,.84.31.77.77,0,0,1,.27.64c0,.75-.51,1.12-1.54,1.12" fill="#77787b"/>
          <polygon points="127.22 14.12 127.22 10.63 129.97 10.63 129.85 11 127.67 11 127.67 12.04 129.5 12.04 129.5 12.39 127.67 12.39 127.67 13.75 129.84 13.75 129.99 14.12 127.22 14.12" fill="#77787b"/>
          <path d="M132.41,11.71c-.07-.19-.14-.41-.21-.65-.08.2-.13.42-.23.65L131.45,13h1.49Zm1,2.41-.32-.8h-1.76l-.32.8h-.48l1.42-3.49h.51l1.43,3.49Z" fill="#77787b"/>
          <path d="M136.42,11H135.1v1h1.38c.46,0,.69-.17.69-.52s-.25-.53-.75-.53m.72,3.13-.94-1.74h-1.1v1.74h-.45V10.63h1.86a1.31,1.31,0,0,1,.85.24.78.78,0,0,1,.28.65c0,.52-.31.8-.94.84l1,1.76Z" fill="#77787b"/>
          <path d="M141.1,11.62a1,1,0,0,0-1-.65,1.06,1.06,0,0,0-.82.33,1.55,1.55,0,0,0-.33,1.06,1.58,1.58,0,0,0,.34,1.1,1,1,0,0,0,.8.33,1,1,0,0,0,1-.72l.45.12a1.39,1.39,0,0,1-1.45,1,1.56,1.56,0,0,1-1.15-.42,1.84,1.84,0,0,1-.48-1.38A1.74,1.74,0,0,1,139,11a1.62,1.62,0,0,1,1.15-.41,1.4,1.4,0,0,1,1.41.89Z" fill="#77787b"/>
          <polygon points="145.06 14.12 145.06 12.38 142.93 12.38 142.93 14.12 142.47 14.12 142.47 10.63 142.93 10.63 142.93 12.02 145.06 12.02 145.06 10.63 145.51 10.63 145.51 14.12 145.06 14.12" fill="#77787b"/>
          <rect x="148.08" y="10.64" width="0.46" height="3.48" fill="#77787b"/>
          <path d="M152.07,14.12l-1.75-2.49a4.38,4.38,0,0,1-.24-.43v2.92h-.44V10.63h.55L152,13.14a3.5,3.5,0,0,1,.2.39v-2.9h.44v3.49Z" fill="#77787b"/>
          <path d="M156.16,11.62a1.09,1.09,0,0,0-1.78-.32,1.5,1.5,0,0,0-.34,1.06,1.58,1.58,0,0,0,.35,1.1,1,1,0,0,0,.8.33,1,1,0,0,0,1-.72l.45.12a1.39,1.39,0,0,1-1.45,1,1.59,1.59,0,0,1-1.16-.42,1.87,1.87,0,0,1-.47-1.38,1.74,1.74,0,0,1,.49-1.34,1.62,1.62,0,0,1,1.15-.41,1.4,1.4,0,0,1,1.4.89Z" fill="#77787b"/>
          <rect x="157.23" y="13.38" width="0.7" height="0.74" fill="#77787b"/>
        </g>
      </g>
    </g>
  </g>
</svg>
